# Exported from Wings 3D 2.2.9
mtllib modelePyramide20Blue.mtl
o tetrahedron1
#4 vertices, 4 faces
v 0.0000000e+0 12.11136595 4.9960036e-16
v 0.0000000e+0 -4.21856567 11.54700538
v -10.00000000 -4.21856567 -5.77350269
v 10.00000000 -4.21856567 -5.77350269
vn 0.0000000e+0 1.00000000 1.1102230e-16
vn 0.0000000e+0 -0.33333333 0.94280904
vn -0.81649658 -0.33333333 -0.47140452
vn 0.81649658 -0.33333333 -0.47140452
g tetrahedron1_blue
usemtl blue
s 1
f 2//2 4//4 1//1
f 3//3 4//4 2//2
g tetrahedron1_default
usemtl default
s 1
f 1//1 3//3 2//2
f 1//1 4//4 3//3
